<mxfile host="app.diagrams.net" modified="2023-10-10T16:55:42.718Z" agent="Mozilla/5.0 (Macintosh; Intel Mac OS X 10.15; rv:109.0) Gecko/20100101 Firefox/115.0" etag="5LLXo8iTfFmbhLmwowjT" version="22.0.4" type="github">
  <diagram id="R2lEEEUBdFMjLlhIrx00" name="Page-1">
    <mxGraphModel dx="1306" dy="809" grid="1" gridSize="12" guides="1" tooltips="1" connect="1" arrows="1" fold="1" page="1" pageScale="1" pageWidth="1100" pageHeight="850" math="0" shadow="0" extFonts="Permanent Marker^https://fonts.googleapis.com/css?family=Permanent+Marker">
      <root>
        <mxCell id="0" />
        <mxCell id="1" parent="0" />
        <mxCell id="4kFl4gZ_07wMyp_KQoaz-6" value="" style="edgeStyle=orthogonalEdgeStyle;rounded=0;orthogonalLoop=1;jettySize=auto;html=1;" edge="1" parent="1" source="4kFl4gZ_07wMyp_KQoaz-1" target="4kFl4gZ_07wMyp_KQoaz-2">
          <mxGeometry relative="1" as="geometry" />
        </mxCell>
        <mxCell id="4kFl4gZ_07wMyp_KQoaz-1" value="Web App" style="rounded=0;whiteSpace=wrap;html=1;" vertex="1" parent="1">
          <mxGeometry x="240" y="95" width="150" height="120" as="geometry" />
        </mxCell>
        <mxCell id="4kFl4gZ_07wMyp_KQoaz-7" value="" style="edgeStyle=orthogonalEdgeStyle;rounded=0;orthogonalLoop=1;jettySize=auto;html=1;" edge="1" parent="1" source="4kFl4gZ_07wMyp_KQoaz-2" target="4kFl4gZ_07wMyp_KQoaz-3">
          <mxGeometry relative="1" as="geometry" />
        </mxCell>
        <mxCell id="4kFl4gZ_07wMyp_KQoaz-2" value="Load Balancer" style="rounded=0;whiteSpace=wrap;html=1;" vertex="1" parent="1">
          <mxGeometry x="480" y="115" width="95" height="80" as="geometry" />
        </mxCell>
        <mxCell id="4kFl4gZ_07wMyp_KQoaz-8" value="" style="edgeStyle=orthogonalEdgeStyle;rounded=0;orthogonalLoop=1;jettySize=auto;html=1;" edge="1" parent="1" source="4kFl4gZ_07wMyp_KQoaz-3" target="4kFl4gZ_07wMyp_KQoaz-4">
          <mxGeometry relative="1" as="geometry" />
        </mxCell>
        <mxCell id="4kFl4gZ_07wMyp_KQoaz-3" value="&lt;div&gt;Web Server&lt;/div&gt;&lt;div&gt;(API)&lt;br&gt;&lt;/div&gt;" style="rounded=0;whiteSpace=wrap;html=1;" vertex="1" parent="1">
          <mxGeometry x="684" y="95" width="150" height="120" as="geometry" />
        </mxCell>
        <mxCell id="4kFl4gZ_07wMyp_KQoaz-4" value="DB" style="shape=datastore;whiteSpace=wrap;html=1;" vertex="1" parent="1">
          <mxGeometry x="948" y="110" width="90" height="90" as="geometry" />
        </mxCell>
        <mxCell id="4kFl4gZ_07wMyp_KQoaz-9" value="Actor" style="shape=umlActor;verticalLabelPosition=bottom;verticalAlign=top;html=1;outlineConnect=0;" vertex="1" parent="1">
          <mxGeometry x="48" y="125" width="30" height="60" as="geometry" />
        </mxCell>
        <mxCell id="4kFl4gZ_07wMyp_KQoaz-15" value="" style="edgeStyle=orthogonalEdgeStyle;rounded=0;orthogonalLoop=1;jettySize=auto;html=1;" edge="1" parent="1" source="4kFl4gZ_07wMyp_KQoaz-10" target="4kFl4gZ_07wMyp_KQoaz-13">
          <mxGeometry relative="1" as="geometry" />
        </mxCell>
        <mxCell id="4kFl4gZ_07wMyp_KQoaz-16" value="" style="edgeStyle=orthogonalEdgeStyle;rounded=0;orthogonalLoop=1;jettySize=auto;html=1;" edge="1" parent="1" source="4kFl4gZ_07wMyp_KQoaz-10" target="4kFl4gZ_07wMyp_KQoaz-12">
          <mxGeometry relative="1" as="geometry" />
        </mxCell>
        <mxCell id="4kFl4gZ_07wMyp_KQoaz-22" style="edgeStyle=orthogonalEdgeStyle;rounded=0;orthogonalLoop=1;jettySize=auto;html=1;exitX=1;exitY=1;exitDx=0;exitDy=0;entryX=0;entryY=0.5;entryDx=0;entryDy=0;" edge="1" parent="1" source="4kFl4gZ_07wMyp_KQoaz-10" target="4kFl4gZ_07wMyp_KQoaz-14">
          <mxGeometry relative="1" as="geometry" />
        </mxCell>
        <mxCell id="4kFl4gZ_07wMyp_KQoaz-10" value="&lt;div&gt;Appointment&lt;/div&gt;" style="rounded=1;arcSize=10;whiteSpace=wrap;html=1;align=center;" vertex="1" parent="1">
          <mxGeometry x="24" y="348" width="144" height="59" as="geometry" />
        </mxCell>
        <mxCell id="4kFl4gZ_07wMyp_KQoaz-12" value="&lt;div&gt;Doctor&lt;/div&gt;" style="rounded=1;arcSize=10;whiteSpace=wrap;html=1;align=center;" vertex="1" parent="1">
          <mxGeometry x="12" y="468" width="144" height="59" as="geometry" />
        </mxCell>
        <mxCell id="4kFl4gZ_07wMyp_KQoaz-13" value="&lt;div&gt;Patient&lt;/div&gt;" style="rounded=1;arcSize=10;whiteSpace=wrap;html=1;align=center;" vertex="1" parent="1">
          <mxGeometry x="240" y="348" width="144" height="59" as="geometry" />
        </mxCell>
        <mxCell id="4kFl4gZ_07wMyp_KQoaz-20" style="edgeStyle=orthogonalEdgeStyle;rounded=0;orthogonalLoop=1;jettySize=auto;html=1;exitX=0.5;exitY=1;exitDx=0;exitDy=0;entryX=0.5;entryY=0;entryDx=0;entryDy=0;" edge="1" parent="1" source="4kFl4gZ_07wMyp_KQoaz-14" target="4kFl4gZ_07wMyp_KQoaz-18">
          <mxGeometry relative="1" as="geometry" />
        </mxCell>
        <mxCell id="4kFl4gZ_07wMyp_KQoaz-21" style="edgeStyle=orthogonalEdgeStyle;rounded=0;orthogonalLoop=1;jettySize=auto;html=1;exitX=0.5;exitY=1;exitDx=0;exitDy=0;entryX=0.5;entryY=0;entryDx=0;entryDy=0;" edge="1" parent="1" source="4kFl4gZ_07wMyp_KQoaz-14" target="4kFl4gZ_07wMyp_KQoaz-19">
          <mxGeometry relative="1" as="geometry" />
        </mxCell>
        <mxCell id="4kFl4gZ_07wMyp_KQoaz-14" value="AppointmentFeedback" style="rounded=1;arcSize=10;whiteSpace=wrap;html=1;align=center;" vertex="1" parent="1">
          <mxGeometry x="216" y="432" width="144" height="59" as="geometry" />
        </mxCell>
        <mxCell id="4kFl4gZ_07wMyp_KQoaz-18" value="FeedbackQuestion" style="rounded=1;arcSize=10;whiteSpace=wrap;html=1;align=center;" vertex="1" parent="1">
          <mxGeometry x="120" y="564" width="144" height="59" as="geometry" />
        </mxCell>
        <mxCell id="4kFl4gZ_07wMyp_KQoaz-19" value="FeedbackAnswer" style="rounded=1;arcSize=10;whiteSpace=wrap;html=1;align=center;" vertex="1" parent="1">
          <mxGeometry x="312" y="564" width="144" height="59" as="geometry" />
        </mxCell>
        <mxCell id="4kFl4gZ_07wMyp_KQoaz-23" value="App" style="rounded=0;whiteSpace=wrap;html=1;" vertex="1" parent="1">
          <mxGeometry x="816" y="324" width="120" height="60" as="geometry" />
        </mxCell>
        <mxCell id="4kFl4gZ_07wMyp_KQoaz-32" value="" style="edgeStyle=orthogonalEdgeStyle;rounded=0;orthogonalLoop=1;jettySize=auto;html=1;" edge="1" parent="1" source="4kFl4gZ_07wMyp_KQoaz-24" target="4kFl4gZ_07wMyp_KQoaz-28">
          <mxGeometry relative="1" as="geometry" />
        </mxCell>
        <mxCell id="4kFl4gZ_07wMyp_KQoaz-33" style="edgeStyle=orthogonalEdgeStyle;rounded=0;orthogonalLoop=1;jettySize=auto;html=1;entryX=0.5;entryY=0;entryDx=0;entryDy=0;" edge="1" parent="1" source="4kFl4gZ_07wMyp_KQoaz-24" target="4kFl4gZ_07wMyp_KQoaz-29">
          <mxGeometry relative="1" as="geometry" />
        </mxCell>
        <mxCell id="4kFl4gZ_07wMyp_KQoaz-24" value="AppointmentFeedbackWizard" style="rounded=0;whiteSpace=wrap;html=1;" vertex="1" parent="1">
          <mxGeometry x="780" y="540" width="204" height="60" as="geometry" />
        </mxCell>
        <mxCell id="4kFl4gZ_07wMyp_KQoaz-31" value="" style="edgeStyle=orthogonalEdgeStyle;rounded=0;orthogonalLoop=1;jettySize=auto;html=1;" edge="1" parent="1" source="4kFl4gZ_07wMyp_KQoaz-25" target="4kFl4gZ_07wMyp_KQoaz-24">
          <mxGeometry relative="1" as="geometry" />
        </mxCell>
        <mxCell id="4kFl4gZ_07wMyp_KQoaz-25" value="AppointmentFeedback" style="rounded=0;whiteSpace=wrap;html=1;" vertex="1" parent="1">
          <mxGeometry x="780" y="444" width="204" height="60" as="geometry" />
        </mxCell>
        <mxCell id="4kFl4gZ_07wMyp_KQoaz-26" value="&lt;font style=&quot;font-size: 20px;&quot;&gt;Component Tree&lt;/font&gt;" style="text;html=1;align=center;verticalAlign=middle;resizable=0;points=[];autosize=1;strokeColor=none;fillColor=none;" vertex="1" parent="1">
          <mxGeometry x="780" y="276" width="180" height="36" as="geometry" />
        </mxCell>
        <mxCell id="4kFl4gZ_07wMyp_KQoaz-27" value="&lt;font style=&quot;font-size: 20px;&quot;&gt;Data Model&lt;/font&gt;" style="text;html=1;align=center;verticalAlign=middle;resizable=0;points=[];autosize=1;strokeColor=none;fillColor=none;" vertex="1" parent="1">
          <mxGeometry x="126" y="264" width="132" height="36" as="geometry" />
        </mxCell>
        <mxCell id="4kFl4gZ_07wMyp_KQoaz-28" value="FeedbackForm" style="rounded=0;whiteSpace=wrap;html=1;" vertex="1" parent="1">
          <mxGeometry x="876" y="648" width="204" height="60" as="geometry" />
        </mxCell>
        <mxCell id="4kFl4gZ_07wMyp_KQoaz-29" value="FeedbackOverview" style="rounded=0;whiteSpace=wrap;html=1;" vertex="1" parent="1">
          <mxGeometry x="612" y="648" width="204" height="60" as="geometry" />
        </mxCell>
        <mxCell id="4kFl4gZ_07wMyp_KQoaz-30" style="edgeStyle=orthogonalEdgeStyle;rounded=0;orthogonalLoop=1;jettySize=auto;html=1;exitX=0.5;exitY=1;exitDx=0;exitDy=0;entryX=0.451;entryY=-0.017;entryDx=0;entryDy=0;entryPerimeter=0;" edge="1" parent="1" source="4kFl4gZ_07wMyp_KQoaz-23" target="4kFl4gZ_07wMyp_KQoaz-25">
          <mxGeometry relative="1" as="geometry" />
        </mxCell>
      </root>
    </mxGraphModel>
  </diagram>
</mxfile>
